<svg width="18" height="21" viewBox="0 0 18 21" fill="none" xmlns="http://www.w3.org/2000/svg">
<path d="M12.7967 4.37733C12.7967 6.23719 11.289 7.7449 9.42915 7.7449C7.5693 7.7449 6.06158 6.23719 6.06158 4.37733C6.06158 2.51748 7.5693 1.00977 9.42915 1.00977C11.289 1.00977 12.7967 2.51748 12.7967 4.37733Z" stroke="#898989" stroke-width="2.02054"/>
<path d="M6.06161 11.1133L2.50983 13.4811C1.57298 14.1057 1.01025 15.1572 1.01025 16.2831V17.9607C1.01025 18.8286 1.71385 19.5322 2.58179 19.5322H9.42917" stroke="#898989" stroke-width="2.02054" stroke-linecap="round" stroke-linejoin="round"/>
<path d="M17.0062 4.37695V11.954M17.0062 11.954V15.717C17.0062 16.4661 16.4727 17.1195 15.724 17.0959C14.4857 17.0569 12.7968 16.6128 12.7968 14.4797C12.7968 11.1121 17.0062 11.954 17.0062 11.954Z" stroke="#898989" stroke-width="1.68378" stroke-linecap="round" stroke-linejoin="round"/>
</svg>