<svg width="18" height="21" viewBox="0 0 18 21" fill="none" xmlns="http://www.w3.org/2000/svg">
<path d="M12.7967 4.37782C12.7967 6.23768 11.289 7.74539 9.42915 7.74539C7.5693 7.74539 6.06158 6.23768 6.06158 4.37782C6.06158 2.51797 7.5693 1.01025 9.42915 1.01025C11.289 1.01025 12.7967 2.51797 12.7967 4.37782Z" stroke="#898989" stroke-width="2.02054"/>
<path d="M6.06161 11.113L2.50983 13.4809C1.57298 14.1055 1.01025 15.1569 1.01025 16.2829V17.9604C1.01025 18.8284 1.71385 19.532 2.58179 19.532H9.42917" stroke="#898989" stroke-width="2.02054" stroke-linecap="round" stroke-linejoin="round"/>
<path d="M17.0062 4.37793V11.955M17.0062 11.955V15.718C17.0062 16.4671 16.4727 17.1205 15.724 17.0969C14.4857 17.0579 12.7968 16.6137 12.7968 14.4806C12.7968 11.1131 17.0062 11.955 17.0062 11.955Z" stroke="#898989" stroke-width="1.68378" stroke-linecap="round" stroke-linejoin="round"/>
</svg>