<svg width="24" height="26" viewBox="0 0 24 26" fill="none" xmlns="http://www.w3.org/2000/svg">
<path d="M15.1541 6.73524C15.1541 8.5951 13.6464 10.1028 11.7865 10.1028C9.92666 10.1028 8.41895 8.5951 8.41895 6.73524C8.41895 4.87539 9.92666 3.36768 11.7865 3.36768C13.6464 3.36768 15.1541 4.87539 15.1541 6.73524Z" stroke="#898989" stroke-width="2.02054"/>
<path d="M8.41891 13.4705L4.86713 15.8383C3.93028 16.4629 3.36755 17.5143 3.36755 18.6403V20.3178C3.36755 21.1858 4.07115 21.8894 4.93909 21.8894H11.7865" stroke="#898989" stroke-width="2.02054" stroke-linecap="round" stroke-linejoin="round"/>
<path d="M19.3635 6.73535V14.3124M19.3635 14.3124V18.0754C19.3635 18.8245 18.83 19.4779 18.0813 19.4543C16.843 19.4153 15.1541 18.9712 15.1541 16.8381C15.1541 13.4705 19.3635 14.3124 19.3635 14.3124Z" stroke="#898989" stroke-width="1.68378" stroke-linecap="round" stroke-linejoin="round"/>
</svg>
