<svg width="128" height="130" viewBox="0 0 128 130" fill="none" xmlns="http://www.w3.org/2000/svg">
<path d="M61.5948 0.913081C62.7737 -0.304433 64.7263 -0.304432 65.9052 0.913083L72.0829 7.29311C72.9849 8.22468 74.3834 8.47127 75.5496 7.90439L83.5368 4.022C85.061 3.28112 86.8959 3.94897 87.5873 5.49627L91.2103 13.6044C91.7393 14.7883 92.9691 15.4983 94.2589 15.3645L103.092 14.4481C104.778 14.2732 106.274 15.5283 106.394 17.2188L107.026 26.0771C107.118 27.3705 108.031 28.4583 109.288 28.7737L117.902 30.9337C119.546 31.3459 120.523 33.0369 120.058 34.6666L117.621 43.2067C117.265 44.4536 117.751 45.788 118.825 46.5146L126.181 51.4905C127.585 52.4401 127.924 54.3631 126.93 55.7355L121.719 62.9272C120.958 63.9772 120.958 65.3973 121.719 66.4474L126.93 73.639C127.924 75.0114 127.585 76.9344 126.181 77.884L118.825 82.8599C117.751 83.5865 117.265 84.9209 117.621 86.1678L120.058 94.7079C120.523 96.3376 119.546 98.0286 117.902 98.4408L109.288 100.601C108.031 100.916 107.118 102.004 107.026 103.297L106.394 112.156C106.274 113.846 104.778 115.101 103.092 114.926L94.2589 114.01C92.9691 113.876 91.7393 114.586 91.2103 115.77L87.5873 123.878C86.8959 125.426 85.061 126.093 83.5368 125.353L75.5496 121.47C74.3834 120.903 72.9849 121.15 72.0829 122.081L65.9052 128.461C64.7263 129.679 62.7737 129.679 61.5948 128.461L55.4171 122.081C54.5151 121.15 53.1166 120.903 51.9504 121.47L43.9632 125.353C42.439 126.093 40.6041 125.426 39.9127 123.878L36.2897 115.77C35.7607 114.586 34.5309 113.876 33.2411 114.01L24.4078 114.926C22.7221 115.101 21.2262 113.846 21.1058 112.156L20.4744 103.297C20.3822 102.004 19.4694 100.916 18.2116 100.601L9.59756 98.4408C7.95372 98.0286 6.97738 96.3376 7.44233 94.7079L9.87877 86.1678C10.2345 84.9209 9.74884 83.5865 8.67479 82.8599L1.31895 77.884C-0.0847795 76.9344 -0.423858 75.0114 0.570448 73.639L5.78081 66.4474C6.54159 65.3973 6.54159 63.9772 5.78081 62.9272L0.570446 55.7355C-0.423859 54.3631 -0.0847821 52.4401 1.31895 51.4905L8.67478 46.5146C9.74884 45.788 10.2345 44.4536 9.87877 43.2067L7.44233 34.6667C6.97738 33.0369 7.95371 31.3459 9.59756 30.9337L18.2116 28.7737C19.4694 28.4583 20.3822 27.3705 20.4744 26.0771L21.1058 17.2188C21.2262 15.5283 22.7221 14.2732 24.4078 14.4481L33.2411 15.3645C34.5309 15.4983 35.7607 14.7883 36.2897 13.6044L39.9127 5.49627C40.6041 3.94897 42.439 3.28112 43.9632 4.02201L51.9504 7.90439C53.1166 8.47127 54.5151 8.22468 55.4171 7.29311L61.5948 0.913081Z" fill="#198941"/>
</svg>
