<svg width="27" height="21" viewBox="0 0 27 21" fill="none" xmlns="http://www.w3.org/2000/svg">
<path d="M1 7.25V16.7407C1 18.2749 2.24365 19.5185 3.77778 19.5185H23.2222C24.7563 19.5185 26 18.2749 26 16.7407V7.25C26 5.71588 24.7563 4.47222 23.2222 4.47222H21.7723C21.2386 4.47222 20.7308 4.24192 20.3791 3.84036L18.4452 1.63187C18.0936 1.23031 17.5858 1 17.052 1H9.61015C9.0764 1 8.5686 1.23031 8.21696 1.63187L6.28304 3.84036C5.9314 4.24192 5.4236 4.47222 4.88985 4.47222H3.77778C2.24365 4.47222 1 5.71588 1 7.25Z" stroke="#898989" stroke-width="2" stroke-linecap="round" stroke-linejoin="round"/>
<circle cx="13.5" cy="10.7223" r="4.16667" stroke="#898989" stroke-width="2"/>
</svg>
