<svg width="41" height="41" viewBox="0 0 41 41" fill="none" xmlns="http://www.w3.org/2000/svg">
<path d="M14.4931 15.5527H25.2165" stroke="#1ED760" stroke-width="2" stroke-linecap="round"/>
<path d="M14.4931 20.7695H21.642" stroke="#1ED760" stroke-width="2" stroke-linecap="round"/>
<path d="M9.57837 23.8142V12.9446C9.57837 11.5039 10.7463 10.3359 12.1871 10.3359H27.9697C29.4104 10.3359 30.5784 11.5039 30.5784 12.9446V23.8142C30.5784 25.2549 29.4104 26.4229 27.9697 26.4229H24.6839C23.8911 26.4229 23.1412 26.7835 22.6462 27.4028L21.6603 28.6363C20.964 29.5074 19.6395 29.5074 18.9433 28.6363L17.9574 27.4028C17.4623 26.7835 16.7125 26.4229 15.9196 26.4229H12.1871C10.7463 26.4229 9.57837 25.2549 9.57837 23.8142Z" stroke="#1ED760" stroke-width="2"/>
<circle cx="20.8267" cy="35.3359" r="2" fill="#1ED760"/>
</svg>
