<svg width="23" height="28" viewBox="0 0 23 28" fill="none" xmlns="http://www.w3.org/2000/svg">
<path d="M5.9147 6.2168H16.6381" stroke="#1ED760" stroke-width="2" stroke-linecap="round"/>
<path d="M5.9147 11.4336H13.0636" stroke="#1ED760" stroke-width="2" stroke-linecap="round"/>
<path d="M1 14.4783V3.6087C1 2.16795 2.16795 1 3.6087 1H19.3913C20.832 1 22 2.16796 22 3.6087V14.4783C22 15.919 20.8321 17.087 19.3913 17.087H16.1056C15.3127 17.087 14.5628 17.4475 14.0678 18.0669L13.0819 19.3004C12.3857 20.1714 11.0611 20.1714 10.3649 19.3004L9.379 18.0669C8.88396 17.4475 8.13412 17.087 7.34125 17.087H3.6087C2.16795 17.087 1 15.919 1 14.4783Z" stroke="#1ED760" stroke-width="2"/>
<circle cx="12.2483" cy="26" r="2" fill="#1ED760"/>
</svg>