<svg width="20" height="20" viewBox="0 0 20 20" fill="none" xmlns="http://www.w3.org/2000/svg">
<path d="M18.4063 2.5838L18.4063 10.5714C18.4063 11.4462 17.6972 12.1553 16.8225 12.1553L15.19 12.1553C14.6257 12.1553 14.1041 12.4555 13.8206 12.9433L10.8289 18.0917C10.0159 19.4907 7.8756 18.914 7.8756 17.2959L7.8756 13.7391C7.8756 12.8644 7.16648 12.1553 6.29175 12.1553L4.16948 12.1553C2.13383 12.1553 0.626592 10.2628 1.08211 8.27874L2.18872 3.45881C2.51909 2.01987 3.79971 0.999951 5.2761 0.999951L16.8225 0.999952C17.6972 0.999952 18.4063 1.70907 18.4063 2.5838Z" stroke="#898989" stroke-width="2"/>
</svg>
