<svg width="26" height="26" viewBox="0 0 26 26" fill="none" xmlns="http://www.w3.org/2000/svg">
<mask id="path-1-inside-1_6016_1646" fill="white">
<path d="M9.89938 19.092C9.50885 19.4825 8.87569 19.4825 8.48517 19.092L6.36385 16.9707C5.97332 16.5802 5.97332 15.947 6.36385 15.5565L20.1524 1.76788C21.1287 0.791572 22.7117 0.791572 23.688 1.76788C24.6643 2.74419 24.6643 4.32711 23.688 5.30342L9.89938 19.092Z"/>
</mask>
<path d="M9.89938 19.092C9.50885 19.4825 8.87569 19.4825 8.48517 19.092L6.36385 16.9707C5.97332 16.5802 5.97332 15.947 6.36385 15.5565L20.1524 1.76788C21.1287 0.791572 22.7117 0.791572 23.688 1.76788C24.6643 2.74419 24.6643 4.32711 23.688 5.30342L9.89938 19.092Z" stroke="#898989" stroke-width="4" mask="url(#path-1-inside-1_6016_1646)"/>
<path d="M5.24599 18.681L6.77483 20.2099L3.86975 21.5861L5.24599 18.681Z" stroke="#E0E0E0" stroke-opacity="0.5" stroke-width="2" stroke-linecap="round"/>
</svg>
