<svg width="76" height="66" viewBox="0 0 76 66" fill="none" xmlns="http://www.w3.org/2000/svg">
<path d="M43.7272 8.66204L37.658 14.5427L31.5888 8.66203C25.2249 2.4957 15.0159 2.83616 9.07694 9.4128C3.31408 15.7944 2.52068 25.3529 7.7391 32.1869C8.38036 33.0267 9.0109 33.831 9.61096 34.5672C13.4092 39.2267 21.6965 47.3641 25.8487 51.731C28.9164 54.9573 31.674 57.6481 33.7514 59.608C35.9452 61.6777 39.3316 61.6325 41.5296 59.5672C45.3601 55.9679 51.2342 50.3614 55.3719 46.0097C59.5242 41.6428 61.9068 39.2267 65.7051 34.5672C66.3051 33.831 66.9357 33.0267 67.5769 32.1869C72.7953 25.3529 72.0019 15.7944 66.2391 9.4128C60.3001 2.83616 50.0911 2.4957 43.7272 8.66204Z" stroke="#1ED760" stroke-width="8.5" stroke-linecap="round" stroke-linejoin="round"/>
</svg>
