<svg width="23" height="20" viewBox="0 0 23 20" fill="none" xmlns="http://www.w3.org/2000/svg">
<path d="M13.1336 2.36517L11.2698 4.17112L9.40593 2.36518C7.45157 0.471504 4.31642 0.57606 2.49256 2.59574C0.7228 4.55551 0.47915 7.49092 2.08172 9.58963C2.27865 9.84753 2.47228 10.0945 2.65656 10.3206C3.823 11.7515 6.36801 14.2505 7.64315 15.5916C8.58524 16.5824 9.43207 17.4087 10.07 18.0106C10.7438 18.6462 11.7837 18.6323 12.4587 17.9981C13.6351 16.8927 15.439 15.171 16.7097 13.8346C17.9848 12.4935 18.7165 11.7515 19.883 10.3206C20.0672 10.0945 20.2609 9.84753 20.4578 9.58963C22.0604 7.49092 21.8167 4.55551 20.047 2.59574C18.2231 0.57606 15.088 0.471502 13.1336 2.36517Z" stroke="#898989" stroke-width="2.02054" stroke-linecap="round" stroke-linejoin="round"/>
</svg>
