<svg width="29" height="29" viewBox="0 0 29 29" fill="none" xmlns="http://www.w3.org/2000/svg">
<path d="M14.4976 18.751C12.5341 18.7376 10.7386 18.1192 9.17831 17.2471M14.4976 18.751V21.8327M14.4976 18.751C16.5165 18.7648 18.349 18.1365 19.9273 17.2471M25.9621 11.5927C25.9621 11.5927 25.3169 12.5861 24.1582 13.8327M2.93416 11.4353C2.93416 11.4353 3.63964 12.5084 4.89332 13.8327M4.89332 13.8327L2.17831 16.5477M4.89332 13.8327C5.95824 14.9576 7.41871 16.2637 9.17831 17.2471M9.17831 17.2471L7.17831 20.3327M19.9273 17.2471L21.6783 20.3327M19.9273 17.2471C21.6836 16.2574 23.125 14.9444 24.1582 13.8327M24.1582 13.8327L26.6783 16.3528" stroke="#898989" stroke-width="2" stroke-linecap="round"/>
</svg>
