<svg width="27" height="13" viewBox="0 0 27 13" fill="none" xmlns="http://www.w3.org/2000/svg">
<path d="M13.3193 8.31544C11.3558 8.30202 9.56032 7.68364 8.00003 6.81159M13.3193 8.31544V11.3972M13.3193 8.31544C15.3382 8.32925 17.1708 7.701 18.749 6.81159M24.7838 1.15717C24.7838 1.15717 24.1386 2.15052 22.98 3.39715M1.75588 0.999709C1.75588 0.999709 2.46136 2.07287 3.71504 3.39716M3.71504 3.39716L1.00003 6.11217M3.71504 3.39716C4.77996 4.52205 6.24042 5.82813 8.00003 6.81159M8.00003 6.81159L6.00003 9.89716M18.749 6.81159L20.5 9.89716M18.749 6.81159C20.5053 5.82189 21.9468 4.50882 22.98 3.39715M22.98 3.39715L25.5 5.91723" stroke="#898989" stroke-width="2" stroke-linecap="round"/>
</svg>
