<svg width="23" height="21" viewBox="0 0 23 21" fill="none" xmlns="http://www.w3.org/2000/svg">
<path d="M1.17865 9.98612V17.4946C1.17865 18.4245 1.93251 19.1784 2.86243 19.1784H6.23C6.79618 19.2071 7.27095 18.7557 7.27095 18.1888V13.2814C7.27095 12.3557 8.01818 11.6037 8.94384 11.5977L13.7314 11.5667C14.6655 11.5607 15.426 12.3163 15.426 13.2505V18.2717C15.426 18.7724 15.832 19.1784 16.3327 19.1784H19.7003C20.6302 19.1784 21.3841 18.4245 21.3841 17.4946V9.98612C21.3841 9.49083 21.166 9.02066 20.7879 8.70074L12.369 1.57704C11.7412 1.04583 10.8215 1.04583 10.1937 1.57704L1.77481 8.70074C1.39671 9.02066 1.17865 9.49083 1.17865 9.98612Z" fill="#E0E0E0" stroke="#E0E0E0" stroke-width="2.3573" stroke-linecap="round" stroke-linejoin="round"/>
</svg>
