<svg width="20" height="24" viewBox="0 0 20 24" fill="none" xmlns="http://www.w3.org/2000/svg">
<path d="M14.5457 4.26552C14.7544 4.70905 15.2832 4.89939 15.7267 4.69066C16.1702 4.48192 16.3606 3.95316 16.1518 3.50963L14.5457 4.26552ZM3.61666 7.98816C4.49277 7.84598 4.49283 7.84638 4.49289 7.84675C4.49291 7.84684 4.49296 7.84719 4.49299 7.84737C4.49305 7.84773 4.49309 7.84799 4.49312 7.84814C4.49316 7.84844 4.49314 7.84833 4.49306 7.84781C4.4929 7.84676 4.49249 7.84408 4.49187 7.83981C4.49063 7.83128 4.48854 7.81644 4.48589 7.79571C4.48057 7.75421 4.47303 7.68935 4.46549 7.60449C4.45037 7.43439 4.43548 7.18627 4.43819 6.88671C4.44366 6.28146 4.52078 5.49832 4.79016 4.73233C5.05715 3.97315 5.50453 3.25206 6.24453 2.71568C6.98229 2.18093 8.08614 1.77515 9.7633 1.77515V0C7.79098 0 6.30174 0.481792 5.20273 1.27839C4.10595 2.07338 3.47285 3.12744 3.11555 4.1434C2.76065 5.15256 2.66967 6.14457 2.66311 6.87067C2.6598 7.2368 2.67792 7.5434 2.69731 7.76162C2.70702 7.87092 2.71711 7.95861 2.72511 8.02113C2.72911 8.0524 2.7326 8.07743 2.73528 8.09577C2.73661 8.10494 2.73774 8.11244 2.73863 8.11822C2.73908 8.12111 2.73947 8.12357 2.73979 8.12559C2.73995 8.1266 2.74009 8.1275 2.74022 8.1283C2.74028 8.12869 2.74036 8.1292 2.74039 8.1294C2.74047 8.12989 2.74055 8.13034 3.61666 7.98816ZM9.7633 1.77515C11.2681 1.77515 12.31 2.10211 13.0382 2.55229C13.7643 3.00119 14.2364 3.60832 14.5457 4.26552L16.1518 3.50963C15.7204 2.59289 15.0353 1.70001 13.9716 1.0424C12.91 0.386066 11.5295 0 9.7633 0V1.77515Z" fill="#898989"/>
<path d="M15.9763 8.43188H3.55029C2.07971 8.43188 0.887573 9.62403 0.887573 11.0946V20.4141C0.887573 21.8847 2.07971 23.0768 3.55029 23.0768H15.9763C17.4469 23.0768 18.639 21.8847 18.639 20.4141V11.0946C18.639 9.62403 17.4469 8.43188 15.9763 8.43188Z" stroke="#898989" stroke-width="1.77515"/>
<circle cx="9.76331" cy="15.9763" r="2.66272" stroke="#898989" stroke-width="1.77515"/>
</svg>
