<svg width="19" height="21" viewBox="0 0 19 21" fill="none" xmlns="http://www.w3.org/2000/svg">
<path d="M12.7968 4.37733C12.7968 6.23719 11.2891 7.7449 9.42921 7.7449C7.56936 7.7449 6.06165 6.23719 6.06165 4.37733C6.06165 2.51748 7.56936 1.00977 9.42921 1.00977C11.2891 1.00977 12.7968 2.51748 12.7968 4.37733Z" stroke="#898989" stroke-width="2.02054"/>
<path d="M2.50986 13.4811L3.25965 12.9813C5.08669 11.7632 7.23338 11.1133 9.4292 11.1133C11.625 11.1133 13.7717 11.7632 15.5988 12.9813L16.3485 13.4811C17.2854 14.1057 17.8481 15.1572 17.8481 16.2831V17.9607C17.8481 18.8286 17.1445 19.5322 16.2766 19.5322H9.4292H2.58182C1.71388 19.5322 1.01028 18.8286 1.01028 17.9607V16.2831C1.01028 15.1572 1.57301 14.1057 2.50986 13.4811Z" stroke="#898989" stroke-width="2.02054" stroke-linecap="round" stroke-linejoin="round"/>
</svg>