<svg width="24" height="26" viewBox="0 0 24 26" fill="none" xmlns="http://www.w3.org/2000/svg">
<path d="M15.1541 6.73524C15.1541 8.5951 13.6464 10.1028 11.7865 10.1028C9.92666 10.1028 8.41895 8.5951 8.41895 6.73524C8.41895 4.87539 9.92666 3.36768 11.7865 3.36768C13.6464 3.36768 15.1541 4.87539 15.1541 6.73524Z" stroke="#898989" stroke-width="2.02054"/>
<path d="M4.86676 15.8381L5.61655 15.3382C7.44359 14.1202 9.59028 13.4702 11.7861 13.4702C13.9819 13.4702 16.1286 14.1202 17.9557 15.3382L18.7054 15.8381C19.6423 16.4626 20.205 17.5141 20.205 18.6401V20.3176C20.205 21.1855 19.5014 21.8891 18.6335 21.8891H11.7861H4.93872C4.07079 21.8891 3.36719 21.1855 3.36719 20.3176V18.64C3.36719 17.5141 3.92991 16.4626 4.86676 15.8381Z" stroke="#898989" stroke-width="2.02054" stroke-linecap="round" stroke-linejoin="round"/>
</svg>
