<svg width="14" height="14" viewBox="0 0 14 14" fill="none" xmlns="http://www.w3.org/2000/svg">
<circle cx="6.99998" cy="7.00065" r="1.16667" fill="#898989"/>
<path d="M9.01911 4.33594C9.76365 4.92972 10.2408 5.84463 10.2408 6.87098C10.2408 7.89733 9.76365 8.81224 9.01911 9.40602M4.98092 9.40602C4.23639 8.81224 3.75928 7.89733 3.75928 6.87098C3.75928 5.89601 4.18982 5.02159 4.87116 4.42749" stroke="#898989" stroke-width="1.16667" stroke-linecap="round" stroke-linejoin="round"/>
<path d="M10.6344 2.33398C11.9746 3.39669 12.8334 5.03414 12.8334 6.87102C12.8334 8.7079 11.9746 10.3453 10.6344 11.4081M3.36565 11.4081C2.02549 10.3453 1.16669 8.7079 1.16669 6.87102C1.16669 5.12608 1.94167 3.56112 3.16807 2.49784" stroke="#898989" stroke-width="1.16667" stroke-linecap="round" stroke-linejoin="round"/>
</svg>
