<svg width="24" height="24" viewBox="0 0 24 24" fill="none" xmlns="http://www.w3.org/2000/svg">
<path d="M14.1164 1H9.88363C9.60145 1 9.35689 1.09167 9.14995 1.275C8.94302 1.45833 8.82074 1.6875 8.78312 1.9625L8.4445 4.52C8.19994 4.61167 7.96968 4.72167 7.75371 4.85C7.537 4.97833 7.32517 5.11583 7.11824 5.2625L4.66325 4.2725C4.39988 4.18083 4.13651 4.17167 3.87313 4.245C3.60976 4.31833 3.40283 4.47417 3.25233 4.7125L1.16418 8.26C1.01368 8.49833 0.966651 8.755 1.02309 9.03C1.07952 9.305 1.22062 9.525 1.44636 9.69L3.56273 11.2575C3.54392 11.3858 3.53451 11.5098 3.53451 11.6293V12.3718C3.53451 12.4906 3.54392 12.6142 3.56273 12.7425L1.44636 14.31C1.22062 14.475 1.07952 14.695 1.02309 14.97C0.966651 15.245 1.01368 15.5017 1.16418 15.74L3.25233 19.2875C3.38402 19.5442 3.58606 19.7048 3.85846 19.7693C4.13161 19.8331 4.39988 19.8192 4.66325 19.7275L7.11824 18.7375C7.32517 18.8842 7.54151 19.0217 7.76726 19.15C7.993 19.2783 8.21875 19.3883 8.4445 19.48L8.78312 22.0375C8.82074 22.3125 8.94302 22.5417 9.14995 22.725C9.35689 22.9083 9.60145 23 9.88363 23H14.1164C14.3986 23 14.6431 22.9083 14.85 22.725C15.057 22.5417 15.1793 22.3125 15.2169 22.0375L15.5555 19.48C15.8001 19.3883 16.0307 19.2783 16.2474 19.15C16.4634 19.0217 16.6748 18.8842 16.8818 18.7375L19.3368 19.7275C19.6001 19.8192 19.8635 19.8283 20.1269 19.755C20.3902 19.6817 20.5972 19.5258 20.7477 19.2875L22.8358 15.74C22.9863 15.5017 23.0334 15.245 22.9769 14.97C22.9205 14.695 22.7794 14.475 22.5536 14.31L20.4373 12.7425C20.4561 12.6142 20.4655 12.4906 20.4655 12.3718V11.6293C20.4655 11.5098 20.4467 11.3858 20.4091 11.2575L22.5254 9.69C22.7512 9.525 22.8923 9.305 22.9487 9.03C23.0051 8.755 22.9581 8.49833 22.8076 8.26L20.7195 4.74C20.569 4.50167 20.3575 4.34107 20.0851 4.2582C19.812 4.17607 19.5437 4.18083 19.2803 4.2725L16.8818 5.2625C16.6748 5.11583 16.4585 4.97833 16.2327 4.85C16.007 4.72167 15.7813 4.61167 15.5555 4.52L15.2169 1.9625C15.1793 1.6875 15.057 1.45833 14.85 1.275C14.6431 1.09167 14.3986 1 14.1164 1Z" stroke="#898989" stroke-width="2"/>
<circle cx="3.34783" cy="3.34783" r="3.34783" transform="matrix(1 0 0 -1 8.65216 15.3478)" stroke="#898989" stroke-width="2"/>
</svg>
