<?xml version="1.0" standalone="no"?>
<!DOCTYPE svg PUBLIC "-//W3C//DTD SVG 20010904//EN"
 "http://www.w3.org/TR/2001/REC-SVG-20010904/DTD/svg10.dtd">
<svg version="1.0" xmlns="http://www.w3.org/2000/svg"
 width="667.000000pt" height="667.000000pt" viewBox="0 0 667.000000 667.000000"
 preserveAspectRatio="xMidYMid meet">

<g transform="translate(0.000000,667.000000) scale(0.100000,-0.100000)"
fill="#000000" stroke="none">
<path d="M2985 6645 c-649 -74 -1234 -317 -1740 -721 -141 -113 -386 -358
-499 -499 -483 -604 -735 -1320 -736 -2085 0 -216 10 -350 41 -545 177 -1102
913 -2055 1941 -2508 792 -350 1698 -378 2506 -76 1080 403 1875 1333 2102
2459 49 240 63 389 63 660 1 265 -13 421 -59 650 -222 1113 -991 2035 -2049
2453 -231 91 -474 155 -750 197 -182 28 -636 36 -820 15z m435 -1875 c829 -66
1534 -274 2156 -636 101 -59 164 -121 197 -192 31 -67 31 -217 0 -284 -29 -64
-96 -134 -158 -166 -44 -23 -62 -27 -145 -27 l-95 0 -180 99 c-514 285 -1059
445 -1745 512 -214 21 -752 24 -975 6 -346 -29 -707 -83 -974 -147 -160 -39
-195 -42 -267 -20 -116 34 -200 125 -231 249 -29 118 4 238 89 325 55 56 116
84 253 116 402 95 840 154 1340 179 116 6 601 -3 735 -14z m-110 -1170 c641
-59 1251 -278 1733 -622 153 -109 202 -195 201 -353 -2 -187 -117 -334 -262
-335 -67 0 -104 16 -205 88 -371 266 -842 445 -1362 517 -518 72 -1147 23
-1677 -131 -139 -40 -167 -41 -233 -10 -64 30 -107 76 -142 151 -25 54 -28 70
-28 170 0 100 3 116 29 172 36 78 94 133 172 162 229 86 721 176 1089 200 162
11 518 6 685 -9z m-97 -1026 c550 -68 1028 -275 1444 -626 98 -83 136 -149
154 -268 22 -141 -28 -304 -113 -373 -71 -57 -167 -48 -243 23 -65 61 -226
176 -335 241 -254 150 -524 248 -826 299 -446 75 -924 36 -1405 -116 -112 -36
-155 -45 -182 -40 -73 14 -139 82 -174 181 -13 37 -18 80 -18 166 0 113 1 116
38 192 23 46 51 87 71 102 86 65 461 168 769 210 268 37 570 40 820 9z"/>
</g>
</svg>
