<svg width="13" height="13" viewBox="0 0 13 13" fill="none" xmlns="http://www.w3.org/2000/svg">
<path d="M5.83585 0.968786C6.04646 0.476326 6.74456 0.476327 6.95517 0.968786L8.13701 3.73223C8.22505 3.93808 8.41899 4.07899 8.64198 4.09911L11.6354 4.36916C12.1688 4.41728 12.3845 5.08122 11.9813 5.4337L9.71829 7.41164C9.54971 7.55899 9.47563 7.78698 9.52541 8.00527L10.1936 10.9356C10.3127 11.4578 9.74788 11.8681 9.28803 11.5935L6.7076 10.0525C6.51537 9.93774 6.27564 9.93774 6.08342 10.0525L3.50298 11.5935C3.04313 11.8681 2.47836 11.4578 2.59743 10.9356L3.26561 8.00527C3.31538 7.78698 3.2413 7.55899 3.07273 7.41164L0.809747 5.4337C0.406472 5.08121 0.622199 4.41728 1.15564 4.36916L4.14903 4.09911C4.37202 4.07899 4.56597 3.93808 4.65401 3.73223L5.83585 0.968786Z" stroke="#898989" stroke-width="1.2"/>
</svg>
