<svg width="31" height="21" viewBox="0 0 31 21" fill="none" xmlns="http://www.w3.org/2000/svg">
<path d="M24.2157 4.37733C24.2157 6.23719 22.708 7.7449 20.8481 7.7449C18.9882 7.7449 17.4805 6.23719 17.4805 4.37733C17.4805 2.51748 18.9882 1.00977 20.8481 1.00977C22.708 1.00977 24.2157 2.51748 24.2157 4.37733Z" stroke="#898989" stroke-width="2.02054"/>
<path d="M13.9287 13.4811L14.6785 12.9813C16.5056 11.7632 18.6523 11.1133 20.8481 11.1133C23.0439 11.1133 25.1906 11.7632 27.0176 12.9813L27.7674 13.4811C28.7043 14.1057 29.267 15.1572 29.267 16.2831V17.9607C29.267 18.8286 28.5634 19.5322 27.6955 19.5322H20.8481H14.0007C13.1328 19.5322 12.4292 18.8286 12.4292 17.9607V16.2831C12.4292 15.1572 12.9919 14.1057 13.9287 13.4811Z" stroke="#898989" stroke-width="2.02054" stroke-linecap="round" stroke-linejoin="round"/>
<path d="M12.7968 4.37733C12.7968 6.23719 11.2891 7.7449 9.42921 7.7449C7.56936 7.7449 6.06165 6.23719 6.06165 4.37733C6.06165 2.51748 7.56936 1.00977 9.42921 1.00977C11.2891 1.00977 12.7968 2.51748 12.7968 4.37733Z" stroke="#898989" stroke-width="2.02054"/>
<path d="M9.4292 11.1133C7.23338 11.1133 5.08669 11.7632 3.25965 12.9813L2.50986 13.4811C1.57301 14.1057 1.01028 15.1572 1.01028 16.2831V17.9607C1.01028 18.8286 1.71388 19.5322 2.58182 19.5322H8.64273" stroke="#898989" stroke-width="2.02054" stroke-linecap="round" stroke-linejoin="round"/>
</svg>