<svg width="35" height="26" viewBox="0 0 35 26" fill="none" xmlns="http://www.w3.org/2000/svg">
<path d="M26.5729 6.73524C26.5729 8.5951 25.0652 10.1028 23.2054 10.1028C21.3455 10.1028 19.8378 8.5951 19.8378 6.73524C19.8378 4.87539 21.3455 3.36768 23.2054 3.36768C25.0652 3.36768 26.5729 4.87539 26.5729 6.73524Z" stroke="#898989" stroke-width="2.02054"/>
<path d="M16.286 15.8383L17.0358 15.3384C18.8628 14.1204 21.0095 13.4705 23.2053 13.4705C25.4012 13.4705 27.5478 14.1204 29.3749 15.3384L30.1247 15.8383C31.0615 16.4629 31.6242 17.5143 31.6242 18.6403V20.3178C31.6242 21.1858 30.9206 21.8894 30.0527 21.8894H23.2053H16.3579C15.49 21.8894 14.7864 21.1858 14.7864 20.3178V18.6403C14.7864 17.5143 15.3491 16.4629 16.286 15.8383Z" stroke="#898989" stroke-width="2.02054" stroke-linecap="round" stroke-linejoin="round"/>
<path d="M15.1541 6.73524C15.1541 8.5951 13.6464 10.1028 11.7865 10.1028C9.92666 10.1028 8.41895 8.5951 8.41895 6.73524C8.41895 4.87539 9.92666 3.36768 11.7865 3.36768C13.6464 3.36768 15.1541 4.87539 15.1541 6.73524Z" stroke="#898989" stroke-width="2.02054"/>
<path d="M11.7865 13.4705C9.59068 13.4705 7.44399 14.1204 5.61695 15.3384L4.86716 15.8383C3.93031 16.4629 3.36758 17.5143 3.36758 18.6403V20.3178C3.36758 21.1858 4.07118 21.8894 4.93912 21.8894H11" stroke="#898989" stroke-width="2.02054" stroke-linecap="round" stroke-linejoin="round"/>
</svg>
