<svg width="26" height="26" viewBox="0 0 26 26" fill="none" xmlns="http://www.w3.org/2000/svg">
<mask id="path-1-inside-1_447_5485" fill="white">
<path d="M9.89913 19.0919C9.50861 19.4824 8.87545 19.4824 8.48492 19.0919L6.3636 16.9706C5.97308 16.58 5.97308 15.9469 6.3636 15.5563L20.1522 1.76777C21.1285 0.791456 22.7114 0.791456 23.6877 1.76777C24.664 2.74408 24.664 4.32699 23.6877 5.3033L9.89913 19.0919Z"/>
</mask>
<path d="M9.89913 19.0919C9.50861 19.4824 8.87545 19.4824 8.48492 19.0919L6.3636 16.9706C5.97308 16.58 5.97308 15.9469 6.3636 15.5563L20.1522 1.76777C21.1285 0.791456 22.7114 0.791456 23.6877 1.76777C24.664 2.74408 24.664 4.32699 23.6877 5.3033L9.89913 19.0919Z" stroke="#898989" stroke-width="4" mask="url(#path-1-inside-1_447_5485)"/>
<path d="M5.24623 18.6809L6.77507 20.2097L3.87 21.586L5.24623 18.6809Z" stroke="#E0E0E0" stroke-opacity="0.5" stroke-width="2" stroke-linecap="round"/>
</svg>
