<svg width="23" height="17" viewBox="0 0 23 17" fill="none" xmlns="http://www.w3.org/2000/svg">
<path d="M3.24684 15.163C3.0547 15.7133 2.53553 16.082 1.95259 16.082C1.00255 16.082 0.340541 15.1391 0.663249 14.2455L5.33105 1.32065C5.61727 0.528124 6.36951 0 7.21213 0H7.28587C8.12849 0 8.88073 0.528124 9.16695 1.32065L13.8248 14.2179C14.1523 15.1249 13.4804 16.082 12.516 16.082C11.9243 16.082 11.3974 15.7078 11.2023 15.1492L10.464 13.0344C10.3239 12.6329 9.94516 12.364 9.51993 12.364H4.93408C4.50884 12.364 4.13012 12.6329 3.98996 13.0344L3.24684 15.163ZM6.886 4.796L5.29419 9.32211C5.17981 9.64733 5.42113 9.988 5.76587 9.988H8.70731C9.05285 9.988 9.29423 9.64587 9.17836 9.32034L7.568 4.796C7.49315 4.55897 6.96812 4.56139 6.886 4.796Z" fill="#898989"/>
<path d="M16.5571 15.5231C16.4457 15.8105 16.1692 16 15.861 16C15.3327 16 14.9716 15.4663 15.1681 14.976L17.667 8.73812C17.8456 8.29228 18.2775 8 18.7578 8C19.2381 8 19.67 8.29228 19.8487 8.73812L22.3414 14.9606C22.5408 15.4583 22.1743 16 21.6381 16C21.3252 16 21.0445 15.8077 20.9315 15.5159L20.6415 14.767C20.4976 14.3954 20.1401 14.1505 19.7416 14.1505H17.7497C17.3513 14.1505 16.9938 14.3954 16.8499 14.767L16.5571 15.5231ZM18.5575 10.3858L17.5499 12.9685H19.9536L18.9338 10.3858C18.889 10.2578 18.6066 10.2593 18.5575 10.3858Z" fill="#898989"/>
</svg>
