<svg width="14" height="15" viewBox="0 0 14 15" fill="none" xmlns="http://www.w3.org/2000/svg">
<path d="M9 4C9 5.10457 8.10457 6 7 6C5.89543 6 5 5.10457 5 4C5 2.89543 5.89543 2 7 2C8.10457 2 9 2.89543 9 4Z" stroke="#898989" stroke-width="1.2"/>
<path d="M5 8L2.8906 9.40627C2.3342 9.7772 2 10.4017 2 11.0704V12.0667C2 12.5821 2.41787 13 2.93333 13H7" stroke="#898989" stroke-width="1.2" stroke-linecap="round" stroke-linejoin="round"/>
<path d="M11.5 4V8.5M11.5 8.5V10.7348C11.5 11.1798 11.1832 11.5678 10.7385 11.5538C10.0031 11.5306 9 11.2669 9 10C9 8 11.5 8.5 11.5 8.5Z" stroke="#898989" stroke-linecap="round" stroke-linejoin="round"/>
</svg>
