<svg width="22" height="19" viewBox="0 0 22 19" fill="none" xmlns="http://www.w3.org/2000/svg">
<path d="M3.24445 12.6777C0.265973 11.1885 0.265973 6.93845 3.24445 5.44922L11.9769 1.08301C12.4245 0.859236 12.9512 1.18418 12.9515 1.68457L12.9515 16.4414C12.9515 16.942 12.4246 17.2677 11.9769 17.0439L3.24445 12.6777Z" stroke="#898989" stroke-width="2.02054"/>
<path d="M17.3292 14.1152C18.118 13.9001 18.8474 13.4228 19.4286 12.7273C20.2406 11.7557 20.6968 10.4379 20.6968 9.06388C20.6968 7.68983 20.2406 6.37205 19.4286 5.40045C18.8474 4.705 18.118 4.22768 17.3292 4.01253" stroke="#898989" stroke-width="1.68378" stroke-linecap="round"/>
<path d="M16.4873 8.55307C16.4873 8.37048 16.6408 8.21668 16.8095 8.28655C16.9116 8.32886 17.0044 8.39087 17.0826 8.46905C17.1608 8.54723 17.2228 8.64004 17.2651 8.74218C17.3074 8.84432 17.3292 8.9538 17.3292 9.06436C17.3292 9.17492 17.3074 9.28439 17.2651 9.38654C17.2228 9.48868 17.1608 9.58149 17.0826 9.65967C17.0044 9.73784 16.9116 9.79986 16.8095 9.84216C16.6408 9.91204 16.4873 9.75823 16.4873 9.57564L16.4873 9.06436L16.4873 8.55307Z" fill="#898989" stroke="#898989" stroke-width="0.841892"/>
</svg>